<?xml version="1.0" encoding="UTF-8" standalone="no"?>
<!DOCTYPE svg PUBLIC "-//W3C//DTD SVG 1.1//EN" "http://www.w3.org/Graphics/SVG/1.1/DTD/svg11.dtd">
<svg width="100%" height="100%" viewBox="0 0 32 33" version="1.1" xmlns="http://www.w3.org/2000/svg" xmlns:xlink="http://www.w3.org/1999/xlink" xml:space="preserve" xmlns:serif="http://www.serif.com/" style="fill-rule:evenodd;clip-rule:evenodd;stroke-linecap:round;stroke-linejoin:round;stroke-miterlimit:2;">
    <g transform="matrix(1,0,0,1,-123,-81)">
        <g id="Jump-Settings" serif:id="Jump Settings" transform="matrix(2,0,0,2,-179,81.34564)">
            <rect x="151" y="0" width="16" height="16" style="fill:none;"/>
            <g transform="matrix(0.179965,-0.179293,0.179293,0.179965,-42.473707,-19.370269)">
                <path d="M470.8,646.8C470.3,647.7 469.533,648.3 468.5,648.6L467.4,648.75L465.5,648.25C464.5,647.75 463.817,647.033 463.45,646.1L463.2,645.1L463.2,644.9C463.167,644.3 463.283,643.75 463.55,643.25C467.283,634.617 475.967,629.383 489.6,627.55L490.6,627.45L496.65,626.85L493.9,624.1C493.3,623.5 493,622.783 493,621.95C493,621.117 493.3,620.417 493.9,619.85C494.467,619.25 495.167,618.95 496,618.95C496.833,618.95 497.55,619.25 498.15,619.85L508.2,629.9C508.767,630.467 509.05,631.167 509.05,632C509.05,632.833 508.767,633.533 508.2,634.1L498.15,644.15C497.55,644.75 496.85,645.05 496.05,645.05C495.217,645.05 494.5,644.767 493.9,644.2C493.3,643.6 493,642.9 493,642.1C493,641.267 493.3,640.55 493.9,639.95L497.1,636.75L496.1,636.8C482.967,636.7 474.533,640.033 470.8,646.8Z" style="fill:none;stroke:rgb(232,232,232);stroke-width:1.97px;stroke-dasharray:1.968,3.936,0,0,0,0;"/>
            </g>
        </g>
    </g>
</svg>
