<?xml version="1.0" encoding="UTF-8" standalone="no"?>
<!DOCTYPE svg PUBLIC "-//W3C//DTD SVG 1.1//EN" "http://www.w3.org/Graphics/SVG/1.1/DTD/svg11.dtd">
<svg width="100%" height="100%" viewBox="0 0 32 32" version="1.1" xmlns="http://www.w3.org/2000/svg" xmlns:xlink="http://www.w3.org/1999/xlink" xml:space="preserve" xmlns:serif="http://www.serif.com/" style="fill-rule:evenodd;clip-rule:evenodd;stroke-linejoin:round;stroke-miterlimit:2;">
    <g transform="matrix(1,0,0,1,-82,-41)">
        <g id="Rotation" transform="matrix(2,0,0,2,-88.670646,41)">
            <rect x="85.335" y="0" width="16" height="16" style="fill:none;"/>
            <g transform="matrix(0.146514,0,0,0.146514,11.206701,7.425892)">
                <g transform="matrix(1.610927,0,0,1.610927,492.890733,-1017.489648)">
                    <path d="M71,633.2C71,639.333 68.833,644.583 64.5,648.95C60.133,653.283 54.883,655.45 48.75,655.45C46.483,655.517 43.75,654.967 40.55,653.8L41.75,656.3C42.117,657.033 42.167,657.8 41.9,658.6C41.633,659.367 41.133,659.933 40.4,660.3L38.1,660.45C37.3,660.183 36.717,659.683 36.35,658.95L31.65,649.25C31.25,648.783 30.95,648.217 30.75,647.55L30.6,647.15L29.85,645.6C29.583,645.033 29.5,644.467 29.6,643.9C29.667,643.3 29.9,642.783 30.3,642.35C30.667,641.883 31.133,641.567 31.7,641.4L45.45,637.25C46.25,637.017 47.017,637.1 47.75,637.5C48.45,637.867 48.933,638.45 49.2,639.25C49.4,640.05 49.317,640.817 48.95,641.55C48.55,642.25 47.95,642.733 47.15,643L43.3,644.15C45.433,644.95 47.25,645.383 48.75,645.45C52.15,645.45 55.05,644.267 57.45,641.9C59.817,639.5 61,636.6 61,633.2L61,633.15C60.8,631.783 61.117,630.55 61.95,629.45C62.783,628.35 63.883,627.7 65.25,627.5C66.617,627.3 67.85,627.617 68.95,628.45C70.05,629.283 70.7,630.383 70.9,631.75L71,633.2Z" style="fill:rgb(255,86,85);"/>
                </g>
                <g transform="matrix(1.610927,0,0,1.610927,492.890733,-1017.489648)">
                    <path d="M13,634.7C13,628.567 15.183,623.333 19.55,619C23.883,614.633 29.117,612.45 35.25,612.45C37.65,612.383 40.583,613.017 44.05,614.35L42.8,611.75C42.433,611.017 42.4,610.267 42.7,609.5C42.967,608.7 43.467,608.117 44.2,607.75L46.5,607.65C47.267,607.917 47.833,608.417 48.2,609.15L54.7,622.5C54.967,623.033 55.067,623.6 55,624.2C54.9,624.767 54.667,625.283 54.3,625.75L52.9,626.7L39.15,630.85C38.35,631.083 37.583,631 36.85,630.6C36.117,630.2 35.633,629.617 35.4,628.85C35.133,628.05 35.2,627.283 35.6,626.55C36,625.817 36.6,625.333 37.4,625.1L41.15,623.95C38.817,623.017 36.85,622.517 35.25,622.45C31.85,622.45 28.967,623.65 26.6,626.05C24.2,628.417 23,631.3 23,634.7L23,634.75C23.2,636.117 22.883,637.35 22.05,638.45C21.217,639.55 20.117,640.2 18.75,640.4C17.383,640.6 16.15,640.283 15.05,639.45C13.95,638.617 13.3,637.517 13.1,636.15L13,634.7Z" style="fill:rgb(255,86,85);"/>
                </g>
            </g>
        </g>
    </g>
</svg>
