<?xml version="1.0" encoding="UTF-8" standalone="no"?>
<!DOCTYPE svg PUBLIC "-//W3C//DTD SVG 1.1//EN" "http://www.w3.org/Graphics/SVG/1.1/DTD/svg11.dtd">
<svg width="100%" height="100%" viewBox="0 0 32 32" version="1.1" xmlns="http://www.w3.org/2000/svg" xmlns:xlink="http://www.w3.org/1999/xlink" xml:space="preserve" xmlns:serif="http://www.serif.com/" style="fill-rule:evenodd;clip-rule:evenodd;stroke-linejoin:round;stroke-miterlimit:2;">
    <g transform="matrix(1,0,0,1,-164,-41)">
        <g id="Gravity" transform="matrix(2,0,0,2,-270,41)">
            <rect x="217" y="0" width="16" height="16" style="fill:none;"/>
            <g transform="matrix(0.136196,0,0,0.136196,93.616387,29.738374)">
                <g transform="matrix(1.610927,0,0,1.610927,-295.117605,-827.924363)">
                    <path d="M784.85,421.9C784.05,422.667 783.1,423.05 782,423.05C780.9,423.05 779.967,422.667 779.2,421.9L768.2,410.9C767.4,410.1 767,409.15 767,408.05C767,406.95 767.4,406.017 768.2,405.25C768.967,404.45 769.9,404.05 771,404.05C772.1,404.05 773.05,404.45 773.85,405.25L777,408.4L777,393C777,391.633 777.5,390.467 778.5,389.5C779.467,388.5 780.633,388 782,388C783.367,388 784.55,388.5 785.55,389.5C786.517,390.467 787,391.633 787,393L787,408.4L790.2,405.25C790.967,404.45 791.9,404.05 793,404.05C794.1,404.05 795.05,404.45 795.85,405.25C796.617,406.017 797,406.95 797,408.05C797,409.15 796.617,410.1 795.85,410.9L784.85,421.9Z" style="fill:rgb(255,86,85);"/>
                </g>
                <g transform="matrix(1.610927,0,0,1.610927,-295.117605,-827.924363)">
                    <path d="M765.65,412.6L777.05,424C778.417,425.367 780.067,426.05 782,426.05C783.933,426.05 785.583,425.367 786.95,424L797.95,413C799.317,411.633 800,409.983 800,408.05L800,407.55L808.65,413C811.45,414.733 812.717,416.583 812.45,418.55C812.717,420.45 811.45,422.283 808.65,424.05L783.6,439.75C779.367,442.383 775.133,442.383 770.9,439.75L770.85,439.75L755.4,430L755.45,430C752.617,428.267 751.333,426.433 751.6,424.5C751.333,422.567 752.617,420.733 755.45,419L755.4,419L765.65,412.6Z" style="fill:rgb(255,86,85);"/>
                </g>
            </g>
        </g>
    </g>
</svg>
