<?xml version="1.0" encoding="UTF-8" standalone="no"?>
<!DOCTYPE svg PUBLIC "-//W3C//DTD SVG 1.1//EN" "http://www.w3.org/Graphics/SVG/1.1/DTD/svg11.dtd">
<svg width="100%" height="100%" viewBox="0 0 32 32" version="1.1" xmlns="http://www.w3.org/2000/svg" xmlns:xlink="http://www.w3.org/1999/xlink" xml:space="preserve" xmlns:serif="http://www.serif.com/" style="fill-rule:evenodd;clip-rule:evenodd;stroke-linejoin:round;stroke-miterlimit:2;">
    <g transform="matrix(1,0,0,1,-41,-41)">
        <g id="Locomotion" transform="matrix(0.5,0,0,0.542373,62,148.389831)">
            <rect x="-42" y="-198" width="64" height="59" style="fill:none;"/>
            <g transform="matrix(0.579777,0,0,0.534481,-887.908172,-170.551281)">
                <g transform="matrix(1.610927,0,0,1.610927,492.890733,-1017.489648)">
                    <path d="M654.15,646.15C653.55,646.75 652.85,647.05 652.05,647.05C651.217,647.05 650.5,646.767 649.9,646.2C649.3,645.6 649,644.9 649,644.1C649,643.267 649.3,642.55 649.9,641.95L652.85,639L615.2,639L618.15,641.95C618.717,642.517 619,643.217 619,644.05C619,644.883 618.717,645.6 618.15,646.2C617.55,646.767 616.833,647.05 616,647.05C615.167,647.05 614.467,646.767 613.9,646.2L603.85,636.15C603.25,635.55 602.95,634.833 602.95,634C602.95,633.167 603.25,632.467 603.85,631.9L613.9,621.85C614.467,621.25 615.167,620.95 616,620.95C616.8,620.95 617.5,621.25 618.1,621.85C618.7,622.417 619,623.117 619,623.95C619,624.75 618.717,625.45 618.15,626.05L615.2,629L652.8,629L649.9,626.1C649.3,625.5 649,624.783 649,623.95C649,623.117 649.3,622.417 649.9,621.85C650.467,621.25 651.167,620.95 652,620.95C652.833,620.95 653.55,621.25 654.15,621.85L664.2,631.9C664.767,632.467 665.05,633.167 665.05,634C665.05,634.833 664.767,635.533 664.2,636.1L654.15,646.15Z" style="fill:rgb(255,86,85);"/>
                </g>
                <g transform="matrix(1.610927,0,0,1.610927,492.890733,-1017.489648)">
                    <path d="M621.85,654.15C621.25,653.55 620.95,652.833 620.95,652C620.95,651.167 621.25,650.467 621.85,649.9C622.417,649.3 623.117,649 623.95,649C624.783,649 625.5,649.3 626.1,649.9L629,652.8L629,645L639,645L639,652.85L641.95,649.9C642.517,649.3 643.217,649 644.05,649C644.85,649 645.55,649.3 646.15,649.9C646.75,650.467 647.05,651.167 647.05,652C647.05,652.8 646.767,653.5 646.2,654.1L636.15,664.15C635.55,664.75 634.833,665.05 634,665.05C633.167,665.05 632.467,664.767 631.9,664.2L621.85,654.15Z" style="fill:rgb(255,86,85);"/>
                </g>
                <g transform="matrix(1.610927,0,0,1.610927,492.890733,-1017.489648)">
                    <path d="M631.9,603.85C632.467,603.25 633.167,602.95 634,602.95C634.833,602.95 635.55,603.25 636.15,603.85L646.2,613.9C646.767,614.467 647.05,615.167 647.05,616C647.05,616.833 646.767,617.55 646.2,618.15C645.6,618.717 644.883,619 644.05,619C643.217,619 642.517,618.717 641.95,618.15L639,615.2L639,623L629,623L629,615.2L626.1,618.1C625.5,618.7 624.8,619 624,619C623.167,619 622.45,618.717 621.85,618.15C621.25,617.55 620.95,616.85 620.95,616.05C620.95,615.217 621.25,614.5 621.85,613.9L631.9,603.85Z" style="fill:rgb(255,86,85);"/>
                </g>
            </g>
        </g>
    </g>
</svg>
