<?xml version="1.0" encoding="UTF-8" standalone="no"?>
<!DOCTYPE svg PUBLIC "-//W3C//DTD SVG 1.1//EN" "http://www.w3.org/Graphics/SVG/1.1/DTD/svg11.dtd">
<svg width="100%" height="100%" viewBox="0 0 32 32" version="1.1" xmlns="http://www.w3.org/2000/svg" xmlns:xlink="http://www.w3.org/1999/xlink" xml:space="preserve" xmlns:serif="http://www.serif.com/" style="fill-rule:evenodd;clip-rule:evenodd;stroke-linejoin:round;stroke-miterlimit:2;">
    <g transform="matrix(1,0,0,1,0,-41)">
        <g id="Movement-Manager" serif:id="Movement Manager" transform="matrix(0.5,0,0,0.542373,21,148.389831)">
            <rect x="-42" y="-198" width="64" height="59" style="fill:none;"/>
            <g transform="matrix(1.208333,0,0,1.113932,-60.75,-215.285156)">
                <path d="M18.55,46.9C21.05,41.567 24.183,37.433 27.95,34.5C29.383,33.3 30.65,32.4 31.75,31.8C32.917,31.133 33.383,30.133 33.15,28.8L33,27C33,24.533 33.883,22.417 35.65,20.65C37.383,18.883 39.5,18 42,18C44.467,18 46.583,18.883 48.35,20.65C50.117,22.417 51,24.533 51,27L50.8,28.8C50.6,30.133 51.083,31.133 52.25,31.8C53.317,32.4 54.583,33.3 56.05,34.5C59.85,37.433 62.983,41.567 65.45,46.9L65.95,48.75L66,49.4L65.75,50.85L65.7,51.05L64.75,52.45C63.883,53.283 62.867,53.7 61.7,53.7C60.533,53.7 59.517,53.283 58.65,52.45L58.2,51.9L55.55,47.7L55.3,47.45C55.067,47.183 54.767,47.05 54.4,47.05C54.033,47.05 53.717,47.183 53.45,47.45C53.217,47.683 53.1,47.983 53.1,48.35L53.1,48.4C53.1,49.2 53.767,51.167 55.1,54.3C56.433,57.4 57.35,59.883 57.85,61.75L57.85,61.95L58,62.8C57.967,63.667 57.7,64.35 57.2,64.85L55.75,65.85L54.7,66L47.35,66C46.683,66 46.1,65.833 45.6,65.5L45.05,65.05L44.55,64.45L44.2,63.5L44.05,62.9L43,56.95L43,56.9L42.7,56.35C42.5,56.15 42.267,56.05 42,56.05C41.7,56.05 41.45,56.15 41.25,56.35L41,56.9L41,56.95L39.95,62.9L39.8,63.5L39.4,64.45L38.95,65.05L38.4,65.5C37.867,65.833 37.283,66 36.65,66L29.25,66L28.2,65.85L26.8,64.85C26.3,64.35 26.033,63.667 26,62.8L26.1,61.95L26.15,61.75C26.617,59.883 27.533,57.4 28.9,54.3C30.2,51.167 30.85,49.2 30.85,48.4L30.85,48.35L30.55,47.45C30.25,47.183 29.933,47.05 29.6,47.05C29.233,47.05 28.933,47.183 28.7,47.45L28.45,47.7L25.75,51.9L25.3,52.45C24.467,53.283 23.467,53.7 22.3,53.7C21.1,53.7 20.083,53.283 19.25,52.45L18.25,51.05L18.25,50.85L18,49.4L18,48.75C18.067,48.117 18.25,47.5 18.55,46.9Z" style="fill:rgb(255,86,85);"/>
            </g>
        </g>
    </g>
</svg>
