<?xml version="1.0" encoding="UTF-8" standalone="no"?>
<!DOCTYPE svg PUBLIC "-//W3C//DTD SVG 1.1//EN" "http://www.w3.org/Graphics/SVG/1.1/DTD/svg11.dtd">
<svg width="100%" height="100%" viewBox="0 0 32 32" version="1.1" xmlns="http://www.w3.org/2000/svg" xmlns:xlink="http://www.w3.org/1999/xlink" xml:space="preserve" xmlns:serif="http://www.serif.com/" style="fill-rule:evenodd;clip-rule:evenodd;stroke-linejoin:round;stroke-miterlimit:2;">
    <g transform="matrix(1,0,0,1,-206,-41)">
        <g id="Stance" transform="matrix(2,0,0,2,-228,41)">
            <rect x="217" y="0" width="16" height="16" style="fill:none;"/>
            <g transform="matrix(0.819216,0,0,0.819216,19.102318,-38.697843)">
                <g transform="matrix(0.32645,0,0,0.32645,236.384072,43.289095)">
                    <path d="M42.393,18.097C42.5,18.043 42.62,18.015 42.743,18.02C45.263,18.174 48.983,19.05 50.583,20.65C52.35,22.417 54.063,24.533 54.063,27L53.863,28.8C53.663,30.133 54.583,33.3 56.05,34.5C59.85,37.433 62.983,41.567 65.45,46.9L65.95,48.75L66,49.4L65.75,50.85L65.7,51.05L64.75,52.45C63.883,53.283 62.867,53.7 61.7,53.7C60.533,53.7 59.517,53.283 58.65,52.45L58.2,51.9L55.55,47.7L55.3,47.45C55.067,47.183 54.767,47.05 54.4,47.05C54.033,47.05 53.717,47.183 53.45,47.45C53.217,47.683 53.1,47.983 53.1,48.35L53.1,48.4C53.1,49.2 53.767,51.167 55.1,54.3C56.433,57.4 57.592,61.046 57.85,61.75C58.108,62.454 58.318,63.871 57.2,64.85C56.082,65.829 55.425,66 54.7,66L47.35,66C46.683,66 46.1,65.833 45.6,65.5L45.05,65.05L44.55,64.45L44.373,63.969L49.961,58.38C50.225,58.117 50.454,57.839 50.652,57.55L51.181,56.578L51.502,55.516L51.605,54.432L51.501,53.346L51.172,52.275L50.622,51.297L49.956,50.533L49.193,49.867L48.214,49.318L47.143,48.988L46.057,48.885L44.974,48.987L44.475,49.138L44.475,34.862L45.006,35.018L46.057,35.115L47.143,35.012L48.214,34.682L49.193,34.133L50.019,33.412C50.254,33.17 50.462,32.918 50.642,32.658L51.172,31.703L51.499,30.649L51.605,29.568L51.501,28.481L51.172,27.411L50.622,26.432L49.902,25.606L42.393,18.097Z" style="fill:rgb(255,86,85);"/>
                </g>
                <g transform="matrix(0,0.289132,-0.289132,0,431.823339,-20.473603)">
                    <path d="M284.15,646.15C283.55,646.75 282.85,647.05 282.05,647.05C281.217,647.05 280.5,646.767 279.9,646.2C279.3,645.6 279,644.9 279,644.1C279,643.267 279.3,642.55 279.9,641.95L282.85,639L253.126,639L256.076,641.95C256.643,642.517 256.926,643.217 256.926,644.05C256.926,644.883 256.643,645.6 256.076,646.2C255.476,646.767 254.76,647.05 253.926,647.05C253.093,647.05 252.393,646.767 251.826,646.2L241.776,636.15C241.176,635.55 240.876,634.833 240.876,634C240.876,633.167 241.176,632.467 241.776,631.9L251.826,621.85C252.393,621.25 253.093,620.95 253.926,620.95C254.726,620.95 255.426,621.25 256.026,621.85C256.626,622.417 256.926,623.117 256.926,623.95C256.926,624.75 256.643,625.45 256.076,626.05L253.126,629L282.8,629L279.9,626.1C279.3,625.5 279,624.783 279,623.95C279,623.117 279.3,622.417 279.9,621.85C280.467,621.25 281.167,620.95 282,620.95C282.833,620.95 283.55,621.25 284.15,621.85L294.2,631.9C294.767,632.467 295.05,633.167 295.05,634C295.05,634.833 294.767,635.533 294.2,636.1L284.15,646.15Z" style="fill:rgb(255,86,85);"/>
                </g>
            </g>
        </g>
    </g>
</svg>
